<?xml version="1.0" encoding="utf-8"?>
<!-- Generator: Adobe Illustrator 23.0.4, SVG Export Plug-In . SVG Version: 6.00 Build 0)  -->
<svg version="1.1" id="Layer_1" xmlns="http://www.w3.org/2000/svg" xmlns:xlink="http://www.w3.org/1999/xlink" x="0px" y="0px"
	 viewBox="0 0 1007 274.6" style="enable-background:new 0 0 1007 274.6;" xml:space="preserve">
<style type="text/css">
	.st0{fill:#C41230;}
	.st1{fill:#808285;}
	.st2{fill:#C10230;}
</style>
<title>Artboard 1</title>
<g>
	<g id="Foreground">
		<polygon class="st0" points="0.4,0 0.4,82.3 27.8,82.3 27.8,218.1 82.7,273 218.5,273 273.4,218.1 273.4,82.3 300.1,82.3 300.1,0 
			164.3,0 164.3,82.3 191.7,82.3 191.7,190.7 109.5,190.7 109.5,82.3 136.9,82.3 136.9,0 		"/>
		<rect x="334" y="204.7" class="st0" width="665.2" height="6.4"/>
		<path class="st1" d="M337.8,6.4c7-0.6,14-1.3,21-1.3c7.5-0.7,14.9,1.4,21,5.7c5,3.8,7.8,9.7,7.7,16c0,5.7-1.9,12.1-6.4,15.9
			c-6.3,5.1-14.3,7.6-22.3,7c-1.9,0-3.8,0-5.1-0.6v24.2h-15.3L337.8,6.4L337.8,6.4z M353.1,37c1.6,0.5,3.4,0.7,5.1,0.6
			c8.3,0,13.4-4.5,13.4-10.8s-4.5-10.2-12.1-10.2c-2.1-0.1-4.3,0.1-6.4,0.6V37z"/>
		<path class="st1" d="M393.9,7c6.9-1.4,14-1.8,21-1.3c7.9-0.7,15.8,1.3,22.3,5.7c4.5,3.2,6.4,8.9,6.4,14c0,7.7-5.1,14-12.1,16.6
			l0,0c5,2.4,8.4,7.2,8.9,12.8c1.9,7.7,4.5,16.6,5.7,19.1h-15.9c-1.9-5.1-3.8-10.2-4.5-15.9c-1.9-8.3-5.1-10.8-11.5-10.8h-4.5V74
			h-15.9V7z M409.2,35.7h6.4c7.6,0,12.1-3.8,12.1-9.6s-4.5-9.5-11.5-9.5c-2.4-0.1-4.7,0.1-7,0.6L409.2,35.7z"/>
		<path class="st1" d="M480.6,75.3c-20.4,0-32.5-15.3-32.5-34.4c0-20.4,13.4-35.7,33.8-35.7s32.5,16,32.5,34.4
			C514.4,61.2,500.4,75.3,480.6,75.3z M481.3,62.5c10.2,0,16.6-9.6,16.6-23c0-12.1-5.7-23-16.6-23s-16.6,10.2-16.6,23
			S471.1,62.5,481.3,62.5z"/>
		<path class="st1" d="M521.5,5.7h42.1v12.8h-26.8v15.3h24.9v12.8h-24.2V74h-15.3C522.1,74,521.5,5.7,521.5,5.7z"/>
		<path class="st1" d="M613.3,45.3h-25.5v16h28.1V74h-44V5.7h42.7v12.8h-26.8v14h25.5V45.3z"/>
		<path class="st1" d="M624.1,58c5.3,2.7,11.2,4.3,17.2,4.5c7,0,10.8-3.2,10.8-7.7s-3.2-6.4-11.5-9.6c-11.5-3.8-19.1-10.2-19.1-20.4
			c0-11.5,10.2-20.4,26.2-20.4c6.1,0.1,12.1,1.2,17.9,3.2l-3.8,12.1c-4.4-2-9.2-3-14-3.2c-7,0-10.2,3.2-10.2,6.4s3.8,6.4,12.8,9.6
			c12.1,4.5,17.9,10.8,17.9,20.4c0,11.5-8.9,21-27.4,21c-6.9,0.1-13.6-1.4-19.8-4.5L624.1,58z"/>
		<path class="st1" d="M676.4,58c5.3,2.7,11.2,4.3,17.2,4.5c7,0,10.8-3.2,10.8-7.7s-3.2-6.4-11.5-9.6c-11.5-3.8-19.1-10.2-19.1-20.4
			c0-11.5,10.2-20.4,26.2-20.4c6.1,0.1,12.1,1.2,17.8,3.2l-3.2,12.7c-4.4-2-9.2-3-14-3.2c-7,0-10.2,3.2-10.2,6.4s3.8,6.4,12.8,9.6
			c12.1,4.5,17.8,10.9,17.8,20.5c0,11.5-8.9,21-27.4,21c-6.9,0.1-13.6-1.4-19.8-4.5L676.4,58z"/>
		<path class="st1" d="M744,5.7V74h-15.3V5.7H744z"/>
		<path class="st1" d="M783.6,75.3C763.2,75.3,751,60,751,40.8c0-20.4,13.4-35.7,33.8-35.7s32.5,16,32.5,34.4
			C818,61.2,804,75.3,783.6,75.3z M784.8,62.5c10.8,0,16.6-9.6,16.6-23c0-12.1-5.7-23-16.6-23s-16.6,10.2-16.6,23
			S774.6,62.5,784.8,62.5z"/>
		<path class="st1" d="M825,74V5.7h18.5l14,24.9c4.5,7.5,8.3,15.4,11.5,23.6l0,0c-1.3-9.6-1.3-19.1-1.3-28.7V5.7h14V74h-16.5
			l-14.7-26.2c-4.5-7.7-8.3-15.9-12.1-24.2h-0.6c0.6,8.9,0.6,18.5,0.6,30V74H825z"/>
		<path class="st1" d="M908.6,56.1l-5.1,17.2h-15.9l21-68.2H929l21.7,68.2h-16.6L929,56.1H908.6z M925.8,44.6L921.3,30
			c-1.4-4.3-2.5-8.8-3.2-13.3l0,0c-0.8,4.5-1.9,9-3.2,13.4l-4.5,14.6H925.8z"/>
		<path class="st1" d="M956.4,5.7h15.3v55.5h27.4V74h-42.7V5.7z"/>
		<path class="st1" d="M390.1,148.6h-32.5v21h36.4v16h-56.8V98.2H392v16.6h-34.5v18.5h32.5V148.6z"/>
		<path class="st1" d="M403.5,99.5c8.9-1.3,17.8-1.9,26.8-1.9c17.2,0,28.1,3.2,36.4,9.6c10.3,7.8,15.9,20.3,14.7,33.2
			c0.7,13.5-4.7,26.5-14.7,35.7c-9.6,7.7-23.6,11.5-40.8,11.5c-7.6,0-15.3-0.6-23-1.3L403.5,99.5z M423.9,170.3
			c2.3,0.5,4.6,0.7,7,0.6c18.5,0,30-9.6,30-30.6c0-18.5-10.8-28.1-28.1-28.1c-3-0.1-6,0.1-8.9,0.6L423.9,170.3z"/>
		<path class="st1" d="M511.2,98.2v50.4c0,15.3,5.7,23,16,23s16.6-7,16.6-23V98.2h19.8v49.1c0,26.8-14,39.5-37,39.5
			s-35.1-12.1-35.1-40.2V98.2H511.2z"/>
		<path class="st1" d="M642,183c-7.4,2.6-15.2,3.9-23,3.8c-30.6,0-46.5-19.1-46.5-44c0-30,21.7-45.9,48.5-45.9
			c7.4,0,14.7,1.3,21.7,3.8l-4.5,15.9c-5.3-2-10.9-3.1-16.6-3.2c-14.3-1.1-26.9,9.6-28,24c0,0.3,0,0.6-0.1,0.9v4.5
			c-1.3,14.4,9.2,27.2,23.6,28.7h4.5c5.7,0,11.5-0.6,16.6-3.2L642,183z"/>
		<path class="st1" d="M672,163.3l-6.4,22.4h-21l26.8-87.4h26.2l27.4,87.4h-21.7l-7-22.3L672,163.3z M694.3,148l-5.1-18.5
			c-1.3-5.1-3.2-12.1-4.5-16.6h-0.6c-1.3,5.1-2.5,12.1-3.8,16.6l-5.1,18.5H694.3z"/>
		<path class="st1" d="M751,114.8h-24.2V98.2H795v16.6h-24.2v70.8H751V114.8z"/>
		<path class="st1" d="M822.5,98.2v87.4h-19.8V98.2H822.5z"/>
		<path class="st1" d="M873.5,186.9c-26.2,0-41.5-19.8-41.5-44.6c0-26.1,17.2-45.9,43.4-45.9c27.4,0,42.1,20.4,42.1,44.7
			C916.8,169.7,899,186.9,873.5,186.9L873.5,186.9z M874.1,170.9c13.4,0,21-12.8,21-30c0-16-7.7-29.3-21-29.3s-21.7,13.4-21.7,29.3
			S860.7,170.9,874.1,170.9z"/>
		<path class="st1" d="M925.8,185.6V98.2h23.6l18.5,31.9c5.7,9.6,10.2,19.8,14.7,30l0,0c-1.4-12.1-1.8-24.2-1.3-36.3V98.2h18.5v87.4
			h-21l-19.1-33.8c-5.8-10-10.7-20.4-14.7-31.2h-0.6c0.6,11.5,0.6,24.2,0.6,38.3V185L925.8,185.6z"/>
		<path d="M351.9,252c0,4,0,7.6,0.2,9.5c0.2,1.2,0.3,2,1.5,2.3c0.7,0.1,1.3,0.2,2,0.2c0.4,0,0.6,0.2,0.6,0.3s-0.2,0.4-0.7,0.4
			c-2.6,0-5.7-0.1-5.9-0.1s-3.2,0.1-4.6,0.1c-0.6,0-0.8-0.1-0.8-0.4s0.1-0.4,0.6-0.4c0.4,0,0.8,0,1.1,0c1-0.1,1.1-0.8,1.3-2.5
			s0.2-5.6,0.2-9.4v-18.4c-1.7,0-4.4,0-6.5,0.1c-3.3,0-4,0.6-4.7,1.6c-0.3,0.5-0.6,1-0.8,1.6c-0.2,0.4-0.3,0.4-0.5,0.4
			s-0.3-0.2-0.3-0.5s0.7-3.7,1-5.1c0.1-0.6,0.3-0.8,0.5-0.8c0.4,0,1.3,0.5,2.3,0.6c1.8,0.2,3.2,0.3,3.3,0.3h16.9
			c1.2,0,2.5-0.1,3.7-0.3c0.3-0.1,0.7-0.2,1-0.2c0.2,0,0.3,0.3,0.3,0.5c0,1.4-0.1,4.8-0.1,5.2s-0.2,0.6-0.4,0.6s-0.4-0.2-0.4-0.6
			c0-0.2,0-0.5,0-0.7c-0.2-2.1-0.9-2.6-6.1-2.6c-2,0-3.5-0.1-5-0.1L351.9,252z"/>
		<path d="M396.2,245.5c0.1,0,0.3,0,0.3-0.3v-0.9c0-6.8,0-8-0.1-9.4s-0.3-2.1-2-2.4c-0.4-0.1-0.9-0.1-1.3-0.1
			c-0.4,0-0.6-0.1-0.6-0.4s0.3-0.4,0.7-0.4c2.1,0,5.2,0.2,5.4,0.2s3.1-0.2,4.6-0.2c0.5,0,0.8,0.1,0.8,0.4s-0.1,0.4-0.6,0.4
			c-0.3,0-0.7,0-1,0.1c-1.4,0.2-1.6,1-1.7,2.5s0,2.6,0,9.4v7.7c0,4.2,0,7.6,0.2,9.4c0.1,1.2,0.4,2.3,1.8,2.4
			c0.6,0.1,1.2,0.1,1.8,0.1c0.4,0,0.7,0.2,0.7,0.4s-0.2,0.4-0.8,0.4c-2.6,0-5.5-0.1-5.8-0.1s-3.2,0.1-4.6,0.1
			c-0.5,0-0.8-0.1-0.8-0.4c0-0.1,0.1-0.3,0.6-0.3c0.4,0,0.8,0,1.2-0.1c0.9-0.2,1.1-1.3,1.3-2.5c0.3-3.1,0.3-6.2,0.3-9.2v-4.6
			c0-0.2-0.1-0.3-0.3-0.3c0,0,0,0,0,0h-18.7c-0.1,0-0.3,0.1-0.3,0.3v4.6c-0.1,3.1,0,6.2,0.3,9.3c0.2,1.1,0.4,2.2,1.8,2.3
			c0.6,0.1,1.2,0.1,1.9,0.1c0.4,0,0.6,0.2,0.6,0.4s-0.2,0.4-0.7,0.4c-2.6,0-5.7-0.1-5.9-0.1s-3.3,0.1-4.6,0.1
			c-0.5,0-0.8-0.1-0.8-0.4s0.1-0.4,0.6-0.4c0.4,0,0.8-0.1,1.2-0.1c0.9-0.2,1.1-1.2,1.3-2.3c0.3-3.2,0.4-6.3,0.3-9.5v-7.6
			c0-6.8,0-8.1-0.1-9.5s-0.5-2.3-2-2.5c-0.5-0.1-1-0.1-1.4-0.1s-0.6-0.1-0.6-0.3s0.2-0.4,0.8-0.4c2.2,0,4.7,0.2,5.4,0.2
			c0.2,0,3.2-0.2,4.6-0.2c0.5,0,0.8,0.1,0.8,0.4s-0.2,0.3-0.5,0.3c-0.3,0-0.7,0-1,0.1c-1.3,0.2-1.6,1.1-1.7,2.5s-0.1,2.5-0.1,9.3
			v0.9c0,0.3,0.2,0.3,0.3,0.3H396.2z"/>
		<path d="M416.6,244.3c0-6.7,0-8-0.1-9.4s-0.5-2.2-2-2.5c-0.4-0.1-0.8-0.1-1.2-0.1c-0.4,0-0.7-0.1-0.7-0.3c0-0.3,0.3-0.4,0.8-0.4
			c1,0,2.4,0.1,5.3,0.2c0.3,0,9.4,0,10.4-0.1c0.7,0,1.3-0.1,2-0.2c0.2-0.1,0.4-0.1,0.6-0.2c0.1,0,0.2,0.1,0.2,0.4s-0.3,1-0.4,2.3
			c0,0.9-0.1,1.7-0.1,2.7c0,0.5-0.1,0.8-0.4,0.8s-0.4-0.2-0.4-0.6c0-0.6-0.1-1.1-0.4-1.6c-0.3-1-0.8-1.4-3.3-1.5
			c-0.7-0.1-5.8-0.1-5.9-0.1s-0.3,0.1-0.3,0.4v11.7c0,0.3,0,0.5,0.3,0.5c0.6,0,5.9-0.1,6.9-0.1s2-0.2,2.4-0.8
			c0.2-0.3,0.4-0.4,0.6-0.4s0.2,0.1,0.2,0.3s-0.2,1.2-0.4,2.7s-0.2,2.5-0.2,3.1c0,0.4-0.1,0.6-0.4,0.6s-0.3-0.3-0.3-0.7
			c0-0.4-0.1-0.8-0.1-1.2c-0.2-0.7-0.5-1.4-2.5-1.6c-1.2-0.1-5.4-0.2-6.2-0.2c-0.3,0-0.4,0.1-0.4,0.4v3.8c0,1.6,0,6.1,0,7
			c0.1,1.9,0.4,2.9,1.4,3.3c1.2,0.4,2.5,0.6,3.8,0.5c1.3,0.1,2.6,0,3.9-0.3c1.5-0.5,1.9-1.5,2.3-3.4c0.1-0.5,0.3-0.7,0.5-0.7
			s0.3,0.5,0.3,0.8s-0.4,3.6-0.6,4.5c-0.2,1-0.6,1.1-2.3,1.1c-3.4,0-4.8-0.1-6.6-0.1s-4.2-0.1-6.1-0.1c-1.2,0-2.2,0.1-3.4,0.1
			c-0.5,0-0.7-0.1-0.7-0.4c0-0.2,0.2-0.4,0.5-0.4c0.3,0,0.7-0.1,1-0.1c0.9-0.2,1.5-0.9,1.6-4.1c0-1.8,0.1-3.9,0.1-7.8L416.6,244.3z"
			/>
		<path d="M462.9,250.4c0,6.3,1.2,8.9,3.1,10.7c1.9,1.6,4.3,2.5,6.8,2.4c2.7,0.1,5.3-1,7-3c2.1-2.4,2.5-6.3,2.5-10.8v-5.4
			c0-6.7,0-7.9-0.1-9.3s-0.3-2.3-1.9-2.5c-0.5-0.1-1-0.1-1.4-0.1c-0.3,0-0.5-0.1-0.5-0.3c0-0.3,0.3-0.4,0.7-0.4c2.2,0,4.8,0.2,5,0.2
			s2.5-0.2,3.9-0.2c0.5,0,0.7,0.1,0.7,0.4s-0.2,0.4-0.5,0.4c-0.3,0-0.6,0-0.9,0.1c-1.4,0.2-1.6,1.1-1.8,2.6s0,2.6,0,9.3v4.6
			c0,4.6-0.5,10.2-4.2,13.3c-2.6,2.2-6,3.3-9.4,3.1c-1.4,0-6.3,0-9.6-3.1c-2.2-2-3.8-5.1-3.8-11.5v-6.4c0-6.8,0-8-0.1-9.4
			s-0.3-2.3-1.9-2.5c-0.4-0.1-0.9-0.1-1.3-0.1c-0.4,0-0.6-0.1-0.6-0.3c0-0.3,0.2-0.4,0.8-0.4c2.2,0,5,0.2,5.4,0.2s3.5-0.2,4.8-0.2
			c0.6,0,0.7,0.1,0.7,0.4s-0.4,0.4-0.6,0.4c-0.4,0-0.8,0-1.1,0.1c-1.2,0.1-1.4,1-1.5,2.5s0,2.6,0,9.4L462.9,250.4z"/>
		<path d="M497.2,233.2c0-1.6,0.2-2.1,0.6-2.1s1.2,1,1.6,1.4c0.5,0.5,7.6,7.8,14.8,15.2c4,3.9,9.2,9.2,10.5,10.4l-0.6-21.4
			c0-2.8-0.4-3.7-1.7-4.1c-0.7-0.1-1.3-0.2-2-0.2c-0.5,0-0.6-0.2-0.6-0.4s0.4-0.3,0.9-0.3c2.2,0,4.4,0.2,4.8,0.2s2.1-0.2,4.1-0.2
			c0.6,0,0.7,0.1,0.7,0.3s-0.2,0.4-0.5,0.4s-0.7,0.1-1.3,0.2c-1.2,0.2-1.5,0.8-1.5,3.9l-0.1,25.8c0,2.6-0.1,2.8-0.5,2.8
			s-0.9-0.4-3.4-2.7c-0.2-0.1-7.3-7.2-11.8-11.6l-11.8-12.2l0.7,20.1c0.1,3.5,0.4,4.9,1.7,5.2c0.7,0.1,1.4,0.2,2.1,0.2
			c0.4,0,0.6,0.2,0.6,0.4s-0.2,0.4-0.8,0.4c-2.8,0-4.6-0.1-5-0.1s-2.3,0.1-4.5,0.1c-0.5,0-0.8,0-0.8-0.4s0.2-0.4,0.7-0.4
			c0.5,0,1.1-0.1,1.6-0.2c1.1-0.4,1.4-1.8,1.4-5.5C497.2,233.8,497.3,241.7,497.2,233.2z"/>
		<path d="M541.8,244.3c0-6.8,0-8-0.1-9.4s-0.4-2.2-1.5-2.4c-0.5-0.1-0.9-0.1-1.2-0.2s-0.6-0.1-0.6-0.4s0.2-0.4,0.8-0.4
			c1.6,0,4.5,0.2,4.7,0.2s3.2-0.2,4.6-0.2c0.5,0,0.8,0.1,0.8,0.4s-0.2,0.3-0.6,0.4s-0.6,0.1-0.9,0.1c-1.5,0.2-1.7,1-1.8,2.5
			s0,2.6,0,9.4v7.7c0,4-0.1,7.6,0.2,9.4c0.2,1.5,0.4,2.1,1.8,2.4c0.7,0.1,1.3,0.2,2,0.2c0.5,0,0.6,0.2,0.6,0.4s-0.2,0.4-0.7,0.4
			c-2.6,0-5.6-0.1-5.9-0.1s-3.2,0.1-4.6,0.1c-0.5,0-0.8-0.1-0.8-0.4s0.2-0.4,0.7-0.4c0.4,0,0.8-0.1,1.2-0.1c0.9-0.2,1-1.2,1.2-2.5
			c0.2-3.1,0.3-6.2,0.3-9.4L541.8,244.3z"/>
		<path d="M558.1,235.9c-1-2.4-1.4-3-3.2-3.3c-0.5-0.1-1-0.1-1.5-0.2c-0.4,0-0.6-0.1-0.6-0.4s0.4-0.4,0.8-0.4c2.4,0,5.3,0.2,5.9,0.2
			s2.9-0.2,4.8-0.2c0.6,0,0.8,0.1,0.8,0.3s-0.2,0.4-0.8,0.4c-0.5,0-1.1,0.1-1.6,0.3c-0.3,0.2-0.5,0.5-0.5,0.9
			c0.2,0.9,0.4,1.8,0.8,2.6l9,22.7c2.6-5.7,8.5-20.6,9.4-23.7c0.2-0.5,0.4-1.1,0.4-1.7c0.1-0.3-0.1-0.7-0.5-0.8
			c-0.5-0.2-1.1-0.2-1.7-0.2c-0.4,0-0.7-0.1-0.7-0.3s0.2-0.4,0.8-0.4c1.9,0,4.3,0.2,4.9,0.2c0.2,0,2.3-0.2,3.5-0.2
			c0.5,0,0.8,0.1,0.8,0.3s-0.2,0.4-0.6,0.4c-0.8,0-1.5,0.1-2.2,0.5c-0.6,0.4-1.2,1-2.4,4c-0.2,0.6-2.8,6.5-5.1,11.8
			c-2.7,6.4-4.8,11.2-5.7,13c-1.4,2.8-1.5,3.6-2,3.6s-0.9-0.6-1.8-2.9L558.1,235.9z"/>
		<path d="M595.6,244.3c0-6.7,0-8-0.1-9.4s-0.5-2.2-2-2.5c-0.4-0.1-0.8-0.1-1.2-0.1c-0.4,0-0.7-0.1-0.7-0.3c0-0.3,0.3-0.4,0.8-0.4
			c1,0,2.4,0.1,5.3,0.2c0.3,0,9.4,0,10.4-0.1c0.7,0,1.3-0.1,2-0.2c0.2-0.1,0.4-0.1,0.6-0.2c0.1,0,0.2,0.1,0.2,0.4s-0.3,1-0.4,2.3
			c0,0.9-0.1,1.7-0.2,2.7c0,0.5-0.1,0.8-0.4,0.8s-0.4-0.2-0.4-0.6c0-0.6-0.1-1.1-0.4-1.6c-0.3-1-0.8-1.4-3.3-1.5
			c-0.7-0.1-5.8-0.1-5.9-0.1s-0.3,0.1-0.3,0.4v11.7c0,0.3,0,0.5,0.3,0.5c0.6,0,5.9-0.1,6.9-0.1s2-0.2,2.4-0.8
			c0.2-0.3,0.4-0.4,0.6-0.4s0.2,0.1,0.2,0.3s-0.2,1.2-0.4,2.7s-0.2,2.5-0.2,3.1c0,0.4-0.2,0.6-0.4,0.6s-0.3-0.3-0.3-0.7
			c0-0.4-0.1-0.8-0.2-1.2c-0.2-0.7-0.5-1.4-2.5-1.6c-1.2-0.1-5.3-0.2-6.2-0.2c-0.3,0-0.4,0.1-0.4,0.4v3.8c0,1.6,0,6.1,0,7
			c0.1,1.9,0.4,2.9,1.4,3.3c1.2,0.4,2.5,0.6,3.8,0.5c1.3,0.1,2.6,0,3.9-0.3c1.5-0.5,1.9-1.5,2.3-3.4c0.1-0.5,0.2-0.7,0.5-0.7
			s0.3,0.5,0.3,0.8s-0.4,3.6-0.6,4.5c-0.2,1-0.6,1.1-2.3,1.1c-3.4,0-4.8-0.1-6.6-0.1s-4.2-0.1-6.1-0.1c-1.2,0-2.2,0.1-3.4,0.1
			c-0.5,0-0.7-0.1-0.7-0.4c0-0.2,0.2-0.4,0.5-0.4c0,0,0,0,0,0c0.3,0,0.7-0.1,1-0.1c0.9-0.2,1.5-0.9,1.6-4.1c0-1.8,0.1-3.9,0.1-7.8
			L595.6,244.3z"/>
		<path d="M622.4,244.3c0-6.8,0-8-0.1-9.4s-0.5-2.2-2.1-2.5c-0.4-0.1-0.8-0.1-1.2-0.1c-0.4,0-0.6-0.1-0.6-0.3s0.2-0.4,0.6-0.4
			c2.2,0,5.3,0.2,5.5,0.2c0.5,0,4-0.2,5.4-0.2c2.9,0,6,0.3,8.4,2c2,1.5,3.1,3.8,3.1,6.3c0,2.8-1.4,6.4-5.5,9.7
			c3.8,4.6,6.8,8.4,9.5,11.2c2.5,2.5,4,2.9,5.5,3.1c0.4,0,1.4,0.1,1.6,0.1c0.4,0,0.6,0.2,0.6,0.4s-0.2,0.4-0.9,0.4h-3.6
			c-1.6,0.1-3.2-0.1-4.7-0.6c-2.2-0.9-3.7-3.2-6.4-6.7c-2-2.5-4.1-5.2-4.9-6.3c-0.1-0.2-0.4-0.3-0.6-0.3l-5.3-0.1
			c-0.2,0-0.3,0.1-0.3,0.2v0.7c-0.1,3.2,0,6.5,0.3,9.7c0.2,1.2,0.3,2.3,2,2.5c0.5,0,1.1,0.1,1.5,0.1s0.7,0.2,0.7,0.3
			s-0.2,0.4-0.7,0.4c-2.7,0-5.5-0.1-5.8-0.1c-0.8,0-3.1,0.1-4.5,0.1c-0.5,0-0.7-0.1-0.7-0.4c0-0.1,0.3-0.3,0.6-0.3
			c0.4,0,0.8,0,1.1-0.1c0.9-0.2,1.2-0.7,1.3-2c0.3-1.9,0.2-6.1,0.2-9.9L622.4,244.3z M626.4,248c0,0.2,0.1,0.5,0.3,0.6
			c1.5,0.5,3,0.7,4.6,0.7c1.2,0.1,2.4-0.2,3.5-0.8c1.5-1,2.6-3.2,2.6-6.5c0-5.6-3-8.7-7.6-8.7c-1,0-2,0.1-3,0.2
			c-0.2,0.1-0.3,0.3-0.3,0.5L626.4,248z"/>
		<path d="M656.1,264.2c-0.7-0.3-0.7-0.5-0.7-1.8c0-2.4,0.2-4.1,0.2-4.8c0.1-0.5,0.2-0.7,0.4-0.7s0.4,0.1,0.4,0.5c0,0.5,0,1,0.2,1.5
			c0.7,3.3,3.7,4.6,6.7,4.6c4.3,0,6.3-2.9,6.3-5.5c0-2.9-1.3-4.7-5.1-7.8l-2.1-1.6c-4.9-4-6-6.7-6-9.7c0-4.7,3.8-7.9,9.5-7.9
			c1.4,0,2.8,0.1,4.2,0.4c0.6,0.1,1.2,0.2,1.8,0.2c0.4,0,0.5,0.1,0.5,0.3s-0.2,2-0.2,5c0,0.8-0.1,1.1-0.4,1.1s-0.3-0.2-0.4-0.6
			c-0.1-0.8-0.3-1.7-0.6-2.4c-0.2-0.5-1.4-2.4-5.8-2.4c-3.1,0-5.4,1.9-5.4,4.9c0,2.4,1.2,3.9,5.5,7.1l1.2,0.9
			c5.3,4.1,6.7,6.8,6.7,10.5c0,2.9-1.5,5.6-3.9,7.3c-2.1,1.2-4.5,1.9-6.9,1.8C660.1,265.4,658.1,265,656.1,264.2z"/>
		<path d="M683.6,244.3c0-6.8,0-8-0.1-9.4s-0.4-2.2-1.5-2.4c-0.5-0.1-0.9-0.1-1.2-0.2s-0.6-0.1-0.6-0.4s0.2-0.4,0.8-0.4
			c1.6,0,4.5,0.2,4.7,0.2s3.2-0.2,4.6-0.2c0.5,0,0.8,0.1,0.8,0.4s-0.2,0.3-0.6,0.4s-0.6,0.1-0.9,0.1c-1.5,0.2-1.6,1-1.7,2.5
			s0,2.6,0,9.4v7.7c0,4-0.1,7.6,0.2,9.4c0.2,1.5,0.4,2.1,1.8,2.4c0.7,0.1,1.3,0.2,2,0.2c0.5,0,0.6,0.2,0.6,0.4s-0.2,0.4-0.7,0.4
			c-2.6,0-5.6-0.1-5.9-0.1s-3.2,0.1-4.6,0.1c-0.5,0-0.8-0.1-0.8-0.4s0.2-0.4,0.7-0.4c0.4,0,0.8-0.1,1.2-0.1c0.9-0.2,1-1.2,1.2-2.5
			c0.2-3.1,0.3-6.2,0.3-9.4L683.6,244.3z"/>
		<path d="M713.3,252c0,4,0,7.6,0.2,9.5c0.2,1.2,0.3,2,1.5,2.3c0.7,0.1,1.3,0.2,2,0.2c0.4,0,0.6,0.2,0.6,0.3s-0.2,0.4-0.7,0.4
			c-2.6,0-5.7-0.1-5.9-0.1s-3.2,0.1-4.6,0.1c-0.6,0-0.8-0.1-0.8-0.4s0.2-0.4,0.6-0.4c0.4,0,0.8,0,1.1,0c1-0.1,1.1-0.8,1.3-2.5
			s0.2-5.6,0.2-9.4v-18.4c-1.7,0-4.4,0-6.5,0.1c-3.3,0-4,0.6-4.7,1.6c-0.3,0.5-0.6,1-0.8,1.6c-0.2,0.4-0.3,0.4-0.5,0.4
			s-0.3-0.2-0.3-0.5s0.7-3.7,1-5.1c0.2-0.6,0.3-0.8,0.5-0.8c0.4,0,1.3,0.5,2.3,0.6c1.8,0.2,3.2,0.3,3.3,0.3h16.9
			c1.3,0,2.5,0,3.8-0.2c0.3-0.1,0.7-0.2,1-0.2c0.2,0,0.3,0.3,0.3,0.5c0,1.4-0.1,4.8-0.1,5.2s-0.2,0.6-0.4,0.6s-0.4-0.2-0.4-0.6
			c0-0.2,0-0.5,0-0.7c-0.2-2.1-0.9-2.6-6.1-2.6c-2,0-3.5-0.1-5-0.1L713.3,252z"/>
		<path d="M743.2,253.5c0.1-1.7-0.3-3.3-1.1-4.7c-0.3-0.6-6.3-10.3-7.9-12.5c-0.7-1.2-1.6-2.2-2.6-3.1c-0.7-0.5-1.6-0.8-2.4-0.8
			c-0.3,0-0.6-0.1-0.6-0.4s0.2-0.3,0.6-0.3c0.8,0,4.7,0.2,4.8,0.2c0.3,0,2-0.2,3.9-0.2c0.5,0,0.7,0.2,0.7,0.3s-0.2,0.3-0.6,0.4
			c-0.7,0.2-0.8,0.4-0.8,0.8c0.1,0.6,0.3,1.2,0.7,1.7c0.7,1.3,7.5,12.2,8.2,13.5c0.8-1.8,6.6-11.2,7.3-12.5c1-1.7,1.2-2.2,1.2-2.7
			s-0.6-0.7-1.2-0.8c-0.4-0.1-0.6-0.2-0.6-0.4s0.1-0.3,0.6-0.3c1.2,0,2.3,0.2,3.1,0.2s3.7-0.2,4.5-0.2c0.5,0,0.6,0.2,0.6,0.3
			s-0.3,0.4-0.6,0.4c-0.9,0-1.8,0.2-2.6,0.7c-0.8,0.6-1.4,1.3-1.9,2.1c-3.2,4.6-6.1,9.4-8.7,14.3c-0.5,1.3-0.6,2.7-0.5,4.1v3.8
			c0,0.4,0,2.3,0.1,4.1c0.1,1.2,0.2,2.1,1.8,2.4c0.6,0.1,1.3,0.2,1.9,0.2c0.4,0,0.6,0.2,0.6,0.3s-0.2,0.4-0.6,0.4
			c-2.6,0-5.8-0.1-5.9-0.1s-3.2,0.1-4.6,0.1c-0.5,0-0.7-0.1-0.7-0.4s0.2-0.3,0.5-0.3c0.4,0,0.9-0.1,1.3-0.1c0.9-0.2,1.2-1.2,1.3-2.5
			c0.2-1.9,0.2-3.7,0.2-4.1L743.2,253.5z"/>
		<path d="M779.6,248.1c0-6.8,5.3-17.1,18-17.1c10.2,0,17.9,6.1,17.9,16.4c0,9.8-7.2,17.9-18.2,17.9
			C784.8,265.3,779.6,255.9,779.6,248.1z M810.7,248.7c0-10.3-6.4-16.1-13.4-16.1s-12.9,4.4-12.9,14.1c0,10.1,5.6,16.8,14.2,16.8
			C802.1,263.6,810.7,261.8,810.7,248.7L810.7,248.7z"/>
		<path d="M825.9,244.3c0-6.7,0-8-0.1-9.4s-0.4-2.3-2-2.4c-0.5-0.1-0.8-0.1-1.3-0.1s-0.7-0.2-0.7-0.4s0.3-0.4,0.8-0.4
			c1.8,0,3.5,0.2,5.2,0.2c0.8,0,10.1,0,11.2-0.1c0.8,0,1.6-0.1,2.3-0.4c0.2-0.1,0.3-0.1,0.5-0.1c0.2,0,0.3,0.1,0.2,0.5
			c-0.1,0.5-0.2,1.1-0.3,1.6c-0.2,1.3-0.2,2.3-0.3,3.6c0,0.6-0.2,0.8-0.4,0.8s-0.4-0.3-0.4-0.6c0-0.9-0.3-1.8-0.8-2.6
			c-0.7-0.6-1.6-0.7-2.9-0.7c-2.2,0-4.2-0.1-6.5-0.1c-0.4,0-0.5,0.1-0.5,0.5v11.6c0,0.3,0,0.5,0.4,0.5c2.1,0,4.6,0,6.3,0
			c2.1-0.1,2.8-0.1,3.5-1c0.2-0.2,0.3-0.4,0.5-0.4s0.2,0.2,0.2,0.5s-0.2,1.1-0.4,2.7c-0.1,1-0.2,2-0.2,3c0,0.5-0.1,0.8-0.4,0.8
			s-0.3-0.3-0.4-0.8c0.1-1.5-1.1-2.7-2.5-2.8c0,0-0.1,0-0.1,0c-1-0.1-5.7-0.1-6.5-0.1c-0.3,0-0.4,0.1-0.4,0.5v3.6
			c0,3.4,0,6.5,0.1,8.6c0,2.6,0.4,2.9,1.8,3.1c0.7,0.1,1.1,0.1,1.6,0.2s0.6,0.2,0.6,0.4s-0.2,0.4-0.7,0.4c-2.7,0-5.5-0.1-5.7-0.1
			h-0.4c-1,0-3.1,0.1-4.2,0.1c-0.5,0-0.7-0.1-0.7-0.4s0.1-0.3,0.5-0.4s0.8,0,1.1-0.1c1.2-0.2,1.3-1,1.4-2.8s0.2-4.9,0.2-9.1
			L825.9,244.3z"/>
		<path d="M871.3,250.4c0,6.3,1.2,8.9,3.1,10.7c1.9,1.6,4.3,2.5,6.8,2.4c2.7,0.1,5.3-1,7-3c2.1-2.4,2.5-6.3,2.5-10.8v-5.4
			c0-6.7,0-7.9-0.1-9.3s-0.3-2.3-1.9-2.5c-0.5-0.1-1-0.1-1.4-0.1c-0.3,0-0.5-0.1-0.5-0.3c0-0.3,0.3-0.4,0.7-0.4c2.2,0,4.8,0.2,5,0.2
			s2.5-0.2,3.9-0.2c0.5,0,0.7,0.1,0.7,0.4s-0.2,0.4-0.5,0.4c-0.3,0-0.6,0-0.9,0.1c-1.4,0.2-1.6,1.1-1.7,2.6s-0.1,2.6-0.1,9.3v4.6
			c0,4.6-0.5,10.2-4.2,13.3c-2.6,2.2-6,3.3-9.4,3.1c-1.4,0-6.3,0-9.6-3.1c-2.2-2-3.8-5.1-3.8-11.5v-6.4c0-6.8,0-8-0.2-9.4
			s-0.3-2.3-1.9-2.5c-0.4-0.1-0.9-0.1-1.3-0.1c-0.4,0-0.6-0.1-0.6-0.3c0-0.3,0.2-0.4,0.8-0.4c2.2,0,5,0.2,5.3,0.2s3.4-0.2,4.8-0.2
			c0.6,0,0.7,0.1,0.7,0.4s-0.4,0.4-0.6,0.4c-0.4,0-0.8,0-1.1,0.1c-1.2,0.1-1.4,1-1.5,2.5s0,2.6,0,9.4L871.3,250.4z"/>
		<path d="M917.8,252c0,4,0,7.6,0.3,9.5c0.2,1.2,0.3,2,1.5,2.3c0.7,0.1,1.3,0.2,2,0.2c0.4,0,0.6,0.2,0.6,0.3s-0.2,0.4-0.7,0.4
			c-2.6,0-5.7-0.1-5.9-0.1s-3.2,0.1-4.6,0.1c-0.6,0-0.8-0.1-0.8-0.4s0.2-0.4,0.6-0.4c0.4,0,0.8,0,1.1,0c1-0.1,1.1-0.8,1.3-2.5
			s0.2-5.6,0.2-9.4v-18.4c-1.7,0-4.4,0-6.5,0.1c-3.3,0-4,0.6-4.7,1.6c-0.3,0.5-0.6,1-0.8,1.6c-0.2,0.4-0.3,0.4-0.5,0.4
			s-0.2-0.2-0.2-0.5s0.7-3.7,1-5.1c0.2-0.6,0.3-0.8,0.5-0.8c0.4,0,1.3,0.5,2.3,0.6c1.8,0.2,3.2,0.3,3.3,0.3h16.9
			c1.2,0,2.5-0.1,3.7-0.3c0.3-0.1,0.7-0.2,1-0.2c0.2,0,0.3,0.3,0.3,0.5c0,1.4-0.1,4.8-0.1,5.2s-0.2,0.6-0.4,0.6s-0.4-0.2-0.4-0.6
			c0-0.2,0-0.5,0-0.7c-0.2-2.1-0.9-2.6-6.1-2.6c-2,0-3.5-0.1-5-0.1L917.8,252z"/>
		<path d="M938.9,252.2c-0.2,0-0.5,0.2-0.5,0.4l-2.3,6.4c-0.5,1.2-0.8,2.4-0.9,3.6c0,0.9,0.6,1.3,1.7,1.3h0.4c0.5,0,0.6,0.2,0.6,0.4
			s-0.4,0.4-0.8,0.4c-1.1,0-3.5-0.1-4.1-0.1s-2.8,0.1-4.9,0.1c-0.6,0-0.8-0.1-0.8-0.4s0.2-0.4,0.6-0.4c0.3,0,0.7,0,1,0
			c2.2-0.2,3.1-1.9,4-4.1l10.3-27.1c0.6-1.5,0.7-1.8,1.1-1.8s0.5,0.2,1,1.6c0.7,1.7,7.7,19.6,10.4,26.1c1.7,4.1,3.2,4.7,3.9,5
			c0.6,0.2,1.2,0.3,1.8,0.3c0.4,0,0.6,0.1,0.6,0.4s-0.2,0.4-0.8,0.4s-4.4,0-7.8-0.1c-1,0-1.3-0.1-1.3-0.4c0-0.2,0.2-0.3,0.3-0.4
			c0.2-0.1,0.5-0.4,0.2-1.1l-4.1-10.3c-0.1-0.2-0.2-0.3-0.4-0.3L938.9,252.2z M947.6,250.4c0.2,0,0.2-0.2,0.2-0.3l-4.1-11.4
			c-0.3-0.7-0.3-0.7-0.6,0l-3.8,11.4c-0.1,0.2,0,0.3,0.1,0.3H947.6z"/>
		<path d="M991.5,245.5c0.2,0,0.3,0,0.3-0.3v-0.9c0-6.8,0-8-0.1-9.4s-0.3-2.1-2-2.4c-0.4-0.1-0.9-0.1-1.3-0.1
			c-0.4,0-0.6-0.1-0.6-0.4s0.3-0.4,0.7-0.4c2.2,0,5.2,0.2,5.4,0.2s3.1-0.2,4.6-0.2c0.5,0,0.8,0.1,0.8,0.4s-0.2,0.4-0.6,0.4
			c-0.3,0-0.7,0-1,0.1c-1.4,0.2-1.6,1-1.7,2.5s0,2.6,0,9.4v7.7c0,4.2,0,7.6,0.2,9.4c0.2,1.2,0.4,2.3,1.8,2.4
			c0.6,0.1,1.2,0.1,1.8,0.1c0.4,0,0.7,0.2,0.7,0.4s-0.3,0.4-0.8,0.4c-2.6,0-5.5-0.1-5.8-0.1s-3.2,0.1-4.6,0.1
			c-0.5,0-0.8-0.1-0.8-0.4c0-0.1,0.2-0.3,0.6-0.3c0.4,0,0.8,0,1.2-0.1c0.9-0.2,1.1-1.3,1.3-2.5c0.3-3.1,0.3-6.2,0.3-9.2v-4.6
			c0-0.2-0.1-0.3-0.3-0.3c0,0,0,0,0,0h-18.8c-0.2,0-0.3,0.1-0.3,0.3v4.6c-0.1,3.1,0,6.2,0.3,9.3c0.2,1.1,0.4,2.2,1.8,2.3
			c0.6,0.1,1.2,0.1,1.8,0.1c0.4,0,0.6,0.2,0.6,0.4s-0.2,0.4-0.7,0.4c-2.6,0-5.7-0.1-5.9-0.1s-3.3,0.1-4.6,0.1
			c-0.5,0-0.8-0.1-0.8-0.4s0.1-0.4,0.6-0.4c0.4,0,0.8-0.1,1.2-0.1c0.9-0.2,1.1-1.2,1.3-2.3c0.3-3.2,0.4-6.3,0.3-9.5v-7.6
			c0-6.8,0-8.1-0.1-9.5s-0.5-2.3-2-2.5c-0.5-0.1-1-0.1-1.4-0.1s-0.6-0.1-0.6-0.3s0.2-0.4,0.8-0.4c2.2,0,4.7,0.2,5.3,0.2
			c0.2,0,3.2-0.2,4.6-0.2c0.5,0,0.8,0.1,0.8,0.4s-0.2,0.3-0.5,0.3c-0.3,0-0.7,0-1,0.1c-1.3,0.2-1.6,1.1-1.7,2.5s0,2.5,0,9.3v0.9
			c0,0.3,0.2,0.3,0.3,0.3H991.5z"/>
		<path class="st2" d="M263.8,252.5c-6,0-10.8,4.9-10.8,10.9s4.9,10.8,10.9,10.8s10.8-4.9,10.8-10.9c0-2.9-1.1-5.6-3.2-7.6
			C269.5,253.6,266.7,252.5,263.8,252.5z M270.4,270c-3.6,3.6-9.5,3.7-13.2,0c0,0,0,0,0,0c-1.8-1.7-2.8-4.1-2.7-6.6
			c0-5.2,4.2-9.3,9.4-9.3s9.3,4.2,9.3,9.4C273.1,265.9,272.1,268.3,270.4,270L270.4,270z"/>
		<path class="st2" d="M268.7,260.8c0.1-1.3-0.6-2.5-1.9-3c-1.1-0.3-2.2-0.5-3.3-0.4h-4.2v11.9h2.1v-4.7h1.7
			c0.8-0.1,1.6,0.1,2.4,0.4c0.8,0.4,1.1,1.4,1.1,2.7v0.9l0,0.4v0.1v0.1h2l-0.1-0.1c-0.1-0.2-0.1-0.4-0.1-0.6c0-0.3,0-0.6,0-0.9v-0.9
			c0-0.7-0.3-1.3-0.6-1.9c-0.5-0.6-1.2-1.1-2-1.2c0.6-0.1,1.2-0.3,1.7-0.6C268.3,262.6,268.8,261.7,268.7,260.8z M265.4,262.8
			c-0.6,0.2-1.3,0.3-2,0.3h-1.9v-4.2h1.8c0.9-0.1,1.8,0.1,2.6,0.4c0.9,0.7,1.1,2,0.4,2.9C266,262.5,265.8,262.7,265.4,262.8
			L265.4,262.8z"/>
	</g>
</g>
</svg>
